<?xml version="1.0" encoding="utf-8"?>
<!-- Generator: Adobe Illustrator 18.0.0, SVG Export Plug-In . SVG Version: 6.00 Build 0)  -->
<!DOCTYPE svg PUBLIC "-//W3C//DTD SVG 1.1//EN" "http://www.w3.org/Graphics/SVG/1.1/DTD/svg11.dtd" [
	<!ENTITY ns_flows "http://ns.adobe.com/Flows/1.0/">
	<!ENTITY ns_extend "http://ns.adobe.com/Extensibility/1.0/">
	<!ENTITY ns_ai "http://ns.adobe.com/AdobeIllustrator/10.0/">
	<!ENTITY ns_graphs "http://ns.adobe.com/Graphs/1.0/">
]>
<svg version="1.1" id="Layer_1" xmlns:x="&ns_extend;" xmlns:i="&ns_ai;" xmlns:graph="&ns_graphs;"
	 xmlns="http://www.w3.org/2000/svg" xmlns:xlink="http://www.w3.org/1999/xlink" xmlns:a="http://ns.adobe.com/AdobeSVGViewerExtensions/3.0/"
	 x="0px" y="0px" viewBox="0 0 1400 980" enable-background="new 0 0 1400 980" xml:space="preserve">
<g>
	<rect fill="#FDE2A7" width="1400" height="980"/>
	<g>
		<g>
			<circle fill="#FFE9BD" cx="417.3" cy="358" r="102.6"/>
			<circle fill="#FEFDEE" cx="417.3" cy="358" r="47.4"/>
		</g>
		<g>
			<g>
				<g>
					<g>
						<path fill="#FFF2D8" d="M927.2,337.5c-1,0-1.9,0.1-2.8,0.2c-1.6-5.1-10.1-9-20.3-9c-1.6,0-3.1,0.1-4.5,0.3
							c-1.5-5.8-11-10.3-22.5-10.3c-7.7,0-14.4,2-18.5,5c-2-0.6-4.2-1-6.7-1c-3,0-5.8,0.5-8,1.4c-2.2-2.9-7.5-4.9-13.8-4.9
							c-2.8,0-5.3,0.4-7.6,1.1c-3.6-4.1-11.6-7-20.8-7c-12.7,0-22.9,5.4-22.9,12c0,1.2,0.3,2.3,0.9,3.4c-1.7,0.1-3.2,0.3-4.7,0.6
							c-3.1-0.8-6.6-1.3-10.3-1.3c-0.1,0-0.2,0-0.3,0c-0.4-9-14.4-16.2-31.6-16.2c-5.6,0-10.8,0.8-15.3,2.1c-0.5-4-6.8-7.1-14.5-7.1
							c-1.1,0-2.2,0.1-3.2,0.2c-3.9-6.6-15.6-11.4-29.5-11.4c-14.8,0-27.2,5.5-30.2,12.8c-3.6-1-7.7-1.6-12.1-1.6
							c-14.1,0-25.6,6-25.6,13.4c0,0.9,0.2,1.8,0.5,2.7c-0.8-0.1-1.6-0.1-2.4-0.1c-8.9,0-16.1,3.8-16.1,8.4c0,0.3,0,0.6,0.1,0.9
							c-11.3,0.4-20.3,5.1-21.4,10.9h196.3h26.7h153.6C938.7,339.9,933.5,337.5,927.2,337.5z"/>
					</g>
					<g>
						<path fill="#FFF2D8" d="M944.2,529.5c0.8,0,1.5,0,2.3,0.1c1.3-4.1,8-7.2,16.1-7.2c1.2,0,2.4,0.1,3.6,0.2
							c1.2-4.6,8.7-8.2,17.9-8.2c6.1,0,11.4,1.6,14.7,4c1.6-0.5,3.4-0.8,5.3-0.8c2.4,0,4.6,0.4,6.3,1.1c1.7-2.3,6-3.9,10.9-3.9
							c2.2,0,4.2,0.3,6,0.9c2.9-3.3,9.2-5.5,16.5-5.5c10.1,0,18.2,4.3,18.2,9.6c0,0.9-0.3,1.8-0.7,2.7c1.3,0.1,2.6,0.2,3.7,0.5
							c2.5-0.7,5.2-1,8.2-1c0.1,0,0.1,0,0.2,0c0.3-7.1,11.4-12.9,25.1-12.9c4.4,0,8.6,0.6,12.2,1.6c0.4-3.1,5.4-5.6,11.5-5.6
							c0.9,0,1.7,0.1,2.5,0.1c3.1-5.2,12.4-9,23.4-9c11.8,0,21.6,4.3,24,10.1c2.9-0.8,6.1-1.3,9.6-1.3c11.2,0,20.3,4.8,20.3,10.6
							c0,0.7-0.1,1.4-0.4,2.1c0.6,0,1.2-0.1,1.9-0.1c7,0,12.8,3,12.8,6.7c0,0.2,0,0.5-0.1,0.7c8.9,0.3,16.1,4,17,8.7h-155.8H1056
							h-122C935,531.4,939.2,529.5,944.2,529.5z"/>
					</g>
					<g>
						<path fill="#FFF2D8" d="M361.5,449c-1.1-1.3-2.7-2.4-4.7-3.1c0.3-0.9,0.6-1.8,0.6-2.8c0-5.9-7-10.7-16.1-11.3
							c0.6-1.3,1-2.7,1-4.2c0-8.2-10.5-14.8-23.4-14.8c-9.4,0-17.5,3.5-21.2,8.6c-2.3-0.9-4.9-1.3-7.7-1.3c-6.4,0-11.8,2.5-14,6.1
							c-2.3-1.1-5.1-1.8-8.1-1.8c-2.5,0-4.8,0.4-6.8,1.2c-4.2-3.7-11.1-6.2-18.9-6.2c-11.7,0-21.4,5.5-23,12.7
							c-1.5-0.2-3-0.3-4.6-0.3c-10.4,0-19,4.8-20.7,11.1c-0.9-0.1-1.9-0.2-2.9-0.2c-6.2,0-11.3,2.7-12.8,6.3H361.5z"/>
					</g>
					<g>
						<path fill="#FFF2D8" d="M562,218.8c-1.5-1.8-3.7-3.3-6.4-4.3c0.5-1.2,0.8-2.5,0.8-3.8c0-8.1-9.7-14.7-22.1-15.5
							c0.8-1.8,1.3-3.7,1.3-5.7c0-11.3-14.4-20.4-32.2-20.4c-13,0-24.1,4.9-29.2,11.9c-3.1-1.2-6.7-1.9-10.6-1.9
							c-8.8,0-16.3,3.5-19.3,8.3c-3.1-1.5-7-2.4-11.2-2.4c-3.4,0-6.6,0.6-9.4,1.6c-5.8-5.2-15.3-8.5-26-8.5
							c-16.2,0-29.5,7.6-31.6,17.5c-2.1-0.3-4.2-0.5-6.4-0.5c-14.3,0-26.2,6.6-28.4,15.3c-1.3-0.2-2.6-0.3-4-0.3
							c-8.5,0-15.6,3.7-17.6,8.7H562z"/>
					</g>
				</g>
			</g>
			<g>
				<g>
					<circle fill="#FFF2D8" cx="526.8" cy="319.8" r="12.7"/>
					<circle fill="#FFF2D8" cx="561.3" cy="288.5" r="6.8"/>
				</g>
			</g>
			<g>
				<g>
					<g>
						<circle fill="#FFF2D8" cx="1213.4" cy="480.4" r="9.1"/>
					</g>
					<g>
						<circle fill="#FFF2D8" cx="1186.2" cy="461.3" r="4.5"/>
					</g>
				</g>
			</g>
			<g>
				<g>
					<path fill="#FFF2D8" d="M902.7,226.8H962c4.6,0,8.3-3.7,8.3-8.3c0-4.6-3.7-8.3-8.3-8.3h-59.3c-4.6,0-8.3,3.7-8.3,8.3
						C894.4,223.1,898.2,226.8,902.7,226.8z"/>
					<circle fill="#FFF2D8" cx="860.8" cy="219.2" r="8.2"/>
				</g>
			</g>
		</g>
		<g>
			<ellipse fill="#D8B12C" cx="489.9" cy="672.8" rx="349.7" ry="49.8"/>
			<path fill="#D8B12C" d="M280.1,642.1c0,0,0-15.2,10.8-26.4c0,0-10.3,5.8-14.8,21.1c0,0-2.2-19.7,7.4-30.9c0,0-11,6.7-11.4,22.9
				c0,0-3.6-6.3-6.7-9.9c0,0,5.4,9.9,5.4,23.3H280.1z"/>
		</g>
		<g>
			<path fill="#F37449" d="M1150.5,332.3c-4.8-14.2-10.8-28.3-8.8-44.1c2.9-22.6,8.5-45.6,7.9-68.3c-1.2-42.9-30.5-84.2-73.2-97.5
				c-42.7-13.3-95.7,5.1-117,43.4c-15.6,28-15.8,63-14.6,93.2c0.6,13.9,2,28.5-5,41.1c-13.7,24.6-28.4,46.6-16.5,74.5
				c1,2.4,2.1,4.7,3.3,6.9c21.6,42.1,63,68.5,87.9,81.4c4.6,3.1,9.4,5.7,14.6,7.7c1.9,0.7,3.9,1.2,5.9,1.7c0.1,0,0.2,0.1,0.2,0
				c7.5,1.5,15.3,1.1,23.2-0.9c29.2-7.3,59-35,73.5-54.4c10.2-13.6,17.9-29.5,22.4-45.5C1158.2,357.6,1154.8,345,1150.5,332.3z"/>
			<path fill="#F7934C" d="M1134.3,341c-4.1-13.2-9.2-26.4-7.5-41.1c2.5-21,7.3-42.5,6.7-63.7c-1-40-26.2-78.5-62.7-90.9
				c-3.9-1.3-7.9-2.3-12-3L1050,158l-5.4-16.8c-29.8,0.5-60,17-74.1,44.5c-13.4,26.1-13.6,58.8-12.5,87c0.5,13,1.7,26.6-4.3,38.3
				c-11.7,22.9-24.3,43.4-14.1,69.6c0.9,2.2,1.8,4.4,2.9,6.5c18.6,39.3,54,63.9,75.3,75.9c3.9,2.9,8,5.3,12.5,7.2
				c1.6,0.7,3.3,1.2,5,1.5c0.1,0,0.1,0.1,0.1,0c6.4,1.4,13.1,1,19.8-0.8c25-6.8,50.5-32.6,63-50.8c8.7-12.7,15.3-27.5,19.2-42.5
				C1140.9,364.7,1138,352.8,1134.3,341z"/>
			<polygon fill="#A14C37" points="1085,390.3 1065.9,402.3 1081.7,359.5 1054.5,408.6 1054.3,281.7 1063.7,253.8 1054.3,269 
				1054.2,210.9 1050.6,275 1050.6,275 1046.4,347.3 1019,305.8 1033.8,342.8 1010.8,337.5 1036.3,349.2 1045.1,371.1 1038.8,480.7 
				1037.7,499.6 1030.2,701 1054.8,701 1054.5,433.1 1061.7,413.6 			"/>
			<path fill="#C95728" d="M1085,226.4c0,0,3.2-11.9,14.5-8.3C1099.5,218.2,1101.5,230.6,1085,226.4z"/>
			<path fill="#C95728" d="M995.4,392.7c0,0,3.2-11.9,14.5-8.3C1009.9,384.5,1011.8,396.9,995.4,392.7z"/>
			<path fill="#C95728" d="M998.7,252.4c0,0-5.5,8.3,8.3,15.1C1007,267.5,1011.1,260.7,998.7,252.4z"/>
			<path fill="#C95728" d="M1095.8,388.8c0,0-5.5,8.3,8.3,15.1C1104.1,404,1108.2,397.1,1095.8,388.8z"/>
			<path fill="#C95728" d="M1104.5,299.5c0,0-9.9-1.1-9.7,14.2C1094.8,313.7,1102.8,314.3,1104.5,299.5z"/>
			<path fill="#C95728" d="M1021.4,183.6c0,0-10.3,3.4,0,15.5C1021.4,199.1,1029,190.5,1021.4,183.6z"/>
			<path fill="#C95728" d="M1069.6,337.7c0,0,0,14.5,18.6,11.7C1088.2,349.4,1084.8,334.3,1069.6,337.7z"/>
		</g>
		<g>
			<path fill="#E14D31" d="M729.2,402.3c3.2-9.4,7.2-18.8,5.8-29.3c-1.9-15-5.6-30.3-5.2-45.4c0.8-28.5,20.3-55.9,48.6-64.8
				c28.4-8.8,63.6,3.4,77.8,28.9c10.4,18.6,10.5,41.9,9.7,62c-0.4,9.2-1.3,18.9,3.3,27.3c9.1,16.3,18.9,30.9,11,49.5
				c-0.7,1.6-1.4,3.1-2.2,4.6c-14.4,28-41.8,45.5-58.4,54.1c-3,2-6.2,3.8-9.7,5.1c-1.3,0.5-2.6,0.8-3.9,1.1c0,0-0.1,0-0.1,0
				c-5,1-10.2,0.7-15.4-0.6c-19.4-4.9-39.2-23.2-48.9-36.2c-6.8-9-11.9-19.6-14.9-30.3C724.1,419.2,726.4,410.7,729.2,402.3z"/>
			<path fill="#F37347" d="M740,408.1c2.7-8.8,6.1-17.5,5-27.3c-1.6-14-4.8-28.3-4.5-42.4c0.7-26.6,17.4-52.2,41.7-60.4
				c2.6-0.9,5.3-1.5,8-2l5.9,10.5l3.6-11.1c19.8,0.3,39.9,11.3,49.2,29.6c8.9,17.3,9,39.1,8.3,57.8c-0.3,8.6-1.1,17.7,2.8,25.5
				c7.8,15.2,16.2,28.9,9.4,46.2c-0.6,1.5-1.2,2.9-1.9,4.3c-12.3,26.1-35.9,42.5-50.1,50.5c-2.6,1.9-5.3,3.6-8.3,4.8
				c-1.1,0.4-2.2,0.8-3.3,1c0,0-0.1,0-0.1,0c-4.3,1-8.7,0.7-13.2-0.6c-16.6-4.5-33.6-21.7-41.9-33.8c-5.8-8.4-10.2-18.3-12.8-28.2
				C735.6,423.8,737.5,416,740,408.1z"/>
			<polygon fill="#A14C37" points="772.7,440.8 785.4,448.9 774.9,420.4 793,453 793.1,368.7 786.9,350.2 793.1,360.2 793.2,321.6 
				795.6,364.2 795.6,364.2 798.4,412.3 816.6,384.7 806.8,409.3 822,405.8 805.1,413.6 799.3,428.1 803.4,501 804.2,513.5 
				809.1,647.4 792.8,647.4 793,469.3 788.2,456.4 			"/>
			<path fill="#F79054" d="M772.7,332c0,0-2.1-7.9-9.7-5.5C763.1,326.5,761.8,334.7,772.7,332z"/>
			<path fill="#F79054" d="M832.3,442.5c0,0-2.1-7.9-9.7-5.5C822.6,437,821.4,445.2,832.3,442.5z"/>
			<path fill="#F79054" d="M830,349.2c0,0,3.7,5.5-5.5,10.1C824.6,359.3,821.8,354.7,830,349.2z"/>
			<path fill="#F79054" d="M765.5,439.9c0,0,3.7,5.5-5.5,10.1C760,450,757.3,445.4,765.5,439.9z"/>
			<path fill="#F79054" d="M759.8,380.5c0,0,6.6-0.8,6.5,9.5C766.2,390,760.9,390.4,759.8,380.5z"/>
			<path fill="#F79054" d="M815,303.5c0,0,6.9,2.3,0,10.3C815,313.8,809.9,308.1,815,303.5z"/>
			<path fill="#F79054" d="M782.9,405.9c0,0,0,9.6-12.3,7.8C770.6,413.7,772.9,403.6,782.9,405.9z"/>
		</g>
		<g>
			<path fill="#E14D31" d="M364.7,518c1.8-5.4,4.1-10.8,3.3-16.8c-1.1-8.6-3.2-17.4-3-26c0.5-16.3,11.6-32.1,27.9-37.1
				c16.3-5.1,36.5,1.9,44.6,16.5c5.9,10.7,6,24,5.5,35.5c-0.2,5.3-0.8,10.9,1.9,15.7c5.2,9.4,10.8,17.7,6.3,28.4
				c-0.4,0.9-0.8,1.8-1.3,2.6c-8.2,16-24,26.1-33.5,31c-1.7,1.2-3.6,2.2-5.6,2.9c-0.7,0.3-1.5,0.5-2.2,0.6c0,0-0.1,0-0.1,0
				c-2.8,0.6-5.8,0.4-8.8-0.3c-11.1-2.8-22.5-13.3-28-20.7c-3.9-5.2-6.8-11.2-8.5-17.3C361.8,527.7,363.1,522.9,364.7,518z"/>
			<path fill="#F37347" d="M370.9,521.4c1.6-5,3.5-10.1,2.9-15.7c-0.9-8-2.8-16.2-2.6-24.3c0.4-15.2,10-29.9,23.9-34.6
				c1.5-0.5,3-0.9,4.6-1.1l3.4,6l2.1-6.4c11.4,0.2,22.8,6.5,28.2,16.9c5.1,9.9,5.2,22.4,4.8,33.1c-0.2,4.9-0.7,10.1,1.6,14.6
				c4.5,8.7,9.3,16.6,5.4,26.5c-0.3,0.8-0.7,1.7-1.1,2.5c-7.1,15-20.6,24.4-28.7,28.9c-1.5,1.1-3.1,2-4.8,2.7
				c-0.6,0.3-1.3,0.4-1.9,0.6c0,0-0.1,0-0.1,0c-2.4,0.5-5,0.4-7.6-0.3c-9.5-2.6-19.2-12.4-24-19.3c-3.3-4.8-5.8-10.5-7.3-16.2
				C368.4,530.4,369.5,525.9,370.9,521.4z"/>
			<polygon fill="#A14C37" points="389.7,540.1 397,544.7 391,528.4 401.3,547.1 401.4,498.8 397.8,488.1 401.4,493.9 401.4,471.8 
				402.8,496.2 402.8,496.2 404.4,523.8 414.8,507.9 409.2,522 417.9,520 408.2,524.5 404.9,532.8 407.3,574.6 407.7,581.8 
				410.6,658.5 401.2,658.5 401.3,556.4 398.6,549 			"/>
			<path fill="#F79054" d="M389.7,477.7c0,0-1.2-4.5-5.5-3.1C384.1,474.6,383.4,479.3,389.7,477.7z"/>
			<path fill="#F79054" d="M423.8,541.1c0,0-1.2-4.5-5.5-3.1C418.3,537.9,417.6,542.6,423.8,541.1z"/>
			<path fill="#F79054" d="M422.5,487.6c0,0,2.1,3.1-3.1,5.8C419.4,493.4,417.8,490.8,422.5,487.6z"/>
			<path fill="#F79054" d="M385.6,539.6c0,0,2.1,3.1-3.1,5.8C382.4,545.3,380.8,542.7,385.6,539.6z"/>
			<path fill="#F79054" d="M382.3,505.5c0,0,3.8-0.4,3.7,5.4C386,511,382.9,511.2,382.3,505.5z"/>
			<path fill="#F79054" d="M413.9,461.4c0,0,3.9,1.3,0,5.9C413.9,467.3,411,464,413.9,461.4z"/>
			<path fill="#F79054" d="M395.5,520.1c0,0,0,5.5-7.1,4.5C388.5,524.6,389.8,518.8,395.5,520.1z"/>
		</g>
		<g>
			<path fill="#F37347" d="M279,503.6c2.6-7.5,5.7-15,4.6-23.3c-1.5-11.9-4.5-24.1-4.2-36.1c0.6-22.7,16.1-44.5,38.7-51.6
				c22.6-7,50.6,2.7,61.9,23c8.2,14.8,8.4,33.3,7.7,49.3c-0.3,7.4-1.1,15.1,2.6,21.7c7.2,13,15,24.6,8.7,39.5
				c-0.5,1.3-1.1,2.5-1.8,3.7C386,552,364.1,566,350.9,572.8c-2.4,1.6-5,3-7.7,4.1c-1,0.4-2.1,0.7-3.1,0.9c0,0-0.1,0-0.1,0
				c-4,0.8-8.1,0.6-12.3-0.5c-15.4-3.9-31.2-18.5-38.9-28.8c-5.4-7.2-9.5-15.6-11.8-24.1C274.9,517,276.7,510.3,279,503.6z"/>
			<path fill="#F7934C" d="M287.5,508.2c2.2-7,4.9-14,4-21.8c-1.3-11.1-3.8-22.5-3.6-33.7c0.5-21.2,13.8-41.6,33.2-48.1
				c2.1-0.7,4.2-1.2,6.3-1.6l4.7,8.3l2.9-8.9c15.8,0.3,31.7,9,39.2,23.5c7.1,13.8,7.2,31.1,6.6,46c-0.3,6.9-0.9,14.1,2.3,20.3
				c6.2,12.1,12.9,23,7.5,36.8c-0.5,1.2-1,2.3-1.5,3.4c-9.8,20.8-28.6,33.8-39.9,40.2c-2.1,1.5-4.3,2.8-6.6,3.8
				c-0.9,0.4-1.8,0.6-2.7,0.8c0,0-0.1,0-0.1,0c-3.4,0.8-6.9,0.5-10.5-0.4c-13.2-3.6-26.7-17.3-33.4-26.9
				c-4.6-6.7-8.1-14.6-10.2-22.5C284,520.8,285.6,514.5,287.5,508.2z"/>
			<polygon fill="#A14C37" points="313.6,534.3 323.7,540.7 315.4,518 329.7,544 329.8,476.9 324.9,462.1 329.8,470.1 329.9,439.4 
				331.8,473.3 331.8,473.3 334,511.6 348.5,489.6 340.7,509.2 352.8,506.4 339.4,512.6 334.7,524.1 338.1,582.2 338.6,592.1 
				342.6,698.7 329.6,698.7 329.7,556.9 325.9,546.7 			"/>
			<path fill="#D65D31" d="M313.6,447.6c0,0-1.7-6.3-7.7-4.4C305.9,443.2,304.9,449.8,313.6,447.6z"/>
			<path fill="#D65D31" d="M361,535.6c0,0-1.7-6.3-7.7-4.4C353.4,531.2,352.3,537.8,361,535.6z"/>
			<path fill="#D65D31" d="M359.2,461.3c0,0,2.9,4.4-4.4,8C354.9,469.4,352.7,465.7,359.2,461.3z"/>
			<path fill="#D65D31" d="M307.9,533.5c0,0,2.9,4.4-4.4,8C303.5,541.6,301.3,537.9,307.9,533.5z"/>
			<path fill="#D65D31" d="M303.3,486.3c0,0,5.2-0.6,5.1,7.5C308.4,493.8,304.2,494.1,303.3,486.3z"/>
			<path fill="#D65D31" d="M347.2,424.9c0,0,5.5,1.8,0,8.2C347.2,433.1,343.2,428.6,347.2,424.9z"/>
			<path fill="#D65D31" d="M321.7,506.5c0,0,0,7.7-9.8,6.2C311.9,512.7,313.7,504.7,321.7,506.5z"/>
		</g>
		<path fill="#C4525C" d="M339.9,689.7c0,0,0-9,6.3-15.5c0,0-6.1,3.4-8.7,12.4c0,0-1.3-11.6,4.3-18.2c0,0-6.5,4-6.7,13.4
			c0,0-2.1-3.7-4-5.8c0,0,3.2,5.8,3.2,13.7H339.9z"/>
		<path fill="#B99B36" d="M517.1,716.9c-1.4-0.2-2.8-0.3-4.2-0.2c0.2-0.8,0.4-1.6,0.5-2.5c2.7-18-9.7-34.8-27.7-37.4
			c-0.2,0-0.4,0-0.5-0.1c0.5-1.8,0.9-3.6,1.2-5.5c3.3-22.3-12-43-34.3-46.3c-9.7-1.5-19.2,0.7-27,5.4c-4.9-9.9-14.3-17.3-26-19
			c-19-2.8-36.6,10.2-39.4,29.2c0,0,0,0,0,0c-0.1,0-0.3-0.1-0.4-0.1c-7.3-1.1-14.1,2.5-17.6,8.5c-3-1.8-6.4-3.1-10.1-3.6
			c-14.8-2.2-28.5,8-30.7,22.7c-0.4,2.6-0.4,5.2,0,7.7c-10,4.6-17.5,14-19.2,25.7c-2.8,18.5,10,35.8,28.5,38.5
			c8.8,1.3,17.4-0.9,24.2-5.6c7.6,7.9,17.7,13.5,29.3,15.2c10.4,1.5,20.5-0.1,29.3-4.3c7.7,6.3,18.5,11.1,30.8,13
			c11.7,1.8,22.9,0.6,31.9-2.8c4.4,4.5,10.2,7.7,16.9,8.7c9.2,1.4,18.1-1.6,24.4-7.5c3.4,3.5,8,5.9,13.2,6.7
			c12.8,1.9,24.7-6.9,26.6-19.7C538.7,730.7,529.9,718.8,517.1,716.9z"/>
		<path fill="#AA863D" d="M810.2,663c2.9,0.2,5.6,0.9,8.1,1.8c4.6-14.6,18.9-24.7,34.8-23.3c5,0.4,9.6,1.9,13.7,4.2
			c7.5-7.2,18-11.3,29.2-10.4c16.6,1.4,29.8,13.4,33.4,28.8c1.1-0.1,2.1-0.1,3.2,0c12,1,21,11.6,20,23.6c-1,12-11.6,21-23.6,20
			c-4.9-0.4-9.4-2.4-12.8-5.5c-7.2,5.7-16.6,8.9-26.5,8c-7.6-0.6-14.4-3.5-20-7.8c-6.2,4.4-14,6.8-22.2,6.1c-7.9-0.7-14.9-4-20.2-9
			c-5.1,4.6-12.6,7.1-20.7,6.5c-14.1-1.2-24.7-11.7-23.7-23.6C783.9,670.5,796.1,661.9,810.2,663z"/>
		<path fill="#D75235" d="M1214.7,704.5c-2.9-0.4-5.6-0.3-8.3,0.1c-1.5-15.3-13.4-28-29.3-30c-4.9-0.6-9.8-0.1-14.2,1.3
			c-5.9-8.6-15.3-14.8-26.4-16.1c-16.5-2.1-31.9,7-38.6,21.3c-1-0.3-2.1-0.5-3.2-0.6c-12-1.5-22.9,7-24.4,19c-1.5,12,7,22.9,19,24.4
			c4.9,0.6,9.7-0.5,13.7-2.8c5.9,7.1,14.4,12.1,24.3,13.3c7.5,0.9,14.8-0.4,21.1-3.5c5.2,5.6,12.3,9.5,20.5,10.5
			c7.9,1,15.4-0.8,21.7-4.7c4,5.5,10.8,9.6,18.9,10.6c14,1.7,26.6-6.4,28.1-18.2C1238.9,717.2,1228.7,706.2,1214.7,704.5z"/>
		<path fill="#EB692F" d="M1147.4,689.2c-1.4-0.2-2.8-0.3-4.2-0.2c0.2-0.8,0.4-1.6,0.5-2.5c2.7-18-9.7-34.8-27.7-37.4
			c-0.2,0-0.4,0-0.5-0.1c0.5-1.8,0.9-3.6,1.2-5.5c3.3-22.3-12-43-34.3-46.3c-9.7-1.5-19.2,0.7-27,5.4c-4.9-9.9-14.3-17.3-26-19
			c-19-2.8-36.6,10.2-39.4,29.2c0,0,0,0,0,0c-0.1,0-0.3-0.1-0.4-0.1c-7.3-1.1-14.1,2.5-17.6,8.5c-3-1.8-6.4-3.1-10.1-3.6
			c-14.8-2.2-28.5,8-30.7,22.7c-0.4,2.6-0.4,5.2,0,7.7c-10,4.6-17.5,14-19.2,25.7c-2.8,18.5,10,35.8,28.5,38.5
			c8.8,1.3,17.4-0.9,24.2-5.6c7.6,7.9,17.7,13.5,29.3,15.2c10.4,1.5,20.5-0.1,29.3-4.3c7.7,6.3,18.5,11.1,30.8,13
			c11.7,1.8,22.9,0.6,31.9-2.8c4.4,4.5,10.2,7.7,16.9,8.7c9.2,1.4,18.1-1.6,24.4-7.5c3.4,3.5,8,5.9,13.2,6.7
			c12.8,1.9,24.7-6.9,26.6-19.7C1169,703.1,1160.2,691.1,1147.4,689.2z"/>
		<g>
			<rect x="402.1" y="598.5" fill="#943D28" width="654.9" height="13.6"/>
			<rect x="415.9" y="653.1" fill="#943D28" width="654.9" height="13.6"/>
			<polygon fill="#AC5930" points="390.5,532.6 363.8,566.7 363.8,718.8 390.5,718.8 417.3,718.8 417.3,566.7 			"/>
			<polygon fill="#AC5930" points="465.6,532.6 438.9,566.7 438.9,718.8 465.6,718.8 492.4,718.8 492.4,566.7 			"/>
			<polygon fill="#AC5930" points="540.7,532.6 513.9,566.7 513.9,718.8 540.7,718.8 567.5,718.8 567.5,566.7 			"/>
			<polygon fill="#AC5930" points="615.8,532.6 589,566.7 589,718.8 615.8,718.8 642.5,718.8 642.5,566.7 			"/>
			<polygon fill="#AC5930" points="690.9,532.6 664.1,566.7 664.1,718.8 690.9,718.8 717.6,718.8 717.6,566.7 			"/>
			<polygon fill="#AC5930" points="765.9,532.6 739.2,566.7 739.2,718.8 765.9,718.8 792.7,718.8 792.7,566.7 			"/>
			<polygon fill="#AC5930" points="841,532.6 814.2,566.7 814.2,718.8 841,718.8 867.8,718.8 867.8,566.7 			"/>
			<polygon fill="#AC5930" points="916.1,532.6 889.3,566.7 889.3,718.8 916.1,718.8 942.9,718.8 942.9,566.7 			"/>
			<polygon fill="#AC5930" points="991.2,532.6 964.4,566.7 964.4,718.8 991.2,718.8 1017.9,718.8 1017.9,566.7 			"/>
			<polygon fill="#AC5930" points="1066.2,532.6 1039.5,566.7 1039.5,718.8 1066.2,718.8 1093,718.8 1093,566.7 			"/>
		</g>
		<g>
			<polygon fill="#EC5552" points="675.5,510.3 567.9,409.6 460.3,510.3 465,510.6 465,710.3 680.1,710.3 680.1,510.3 			"/>
			<path fill="#AA3333" d="M572.5,561c-40.2,0-72.7,25.5-72.7,56.9v92.4h145.5v-92.4C645.3,586.5,612.7,561,572.5,561z"/>
			<path fill="#FFFFFF" d="M599.6,504.8c3.5-1.5,6-4.9,6-9c0-5.3-4.3-9.7-9.7-9.7c-5.3,0-9.7,4.3-9.7,9.7c0,1,0.2,1.9,0.4,2.8h-32.8
				c0.3-0.9,0.4-1.8,0.4-2.8c0-5.3-4.3-9.7-9.7-9.7c-5.3,0-9.7,4.3-9.7,9.7c0,4,2.5,7.5,6,9c-3.5,1.5-6,4.9-6,9
				c0,5.3,4.3,9.7,9.7,9.7c5.4,0,9.7-4.3,9.7-9.7c0-1-0.2-1.9-0.4-2.8h32.8c-0.3,0.9-0.4,1.8-0.4,2.8c0,5.3,4.3,9.7,9.7,9.7
				c5.4,0,9.7-4.3,9.7-9.7C605.6,509.7,603.1,506.3,599.6,504.8z"/>
			<polygon fill="#AA3333" points="712.5,536.1 572.6,398.5 572.5,398.5 572.5,398.5 429.9,538.7 444.1,554.3 572.5,428 
				698.3,551.6 			"/>
		</g>
		<circle fill="#943D28" cx="1066.2" cy="603.4" r="4.4"/>
		<circle fill="#943D28" cx="1066.2" cy="659.9" r="4.4"/>
		<circle fill="#943D28" cx="390.5" cy="603.4" r="4.4"/>
		<g>
			<ellipse fill="#D8B12F" cx="742.5" cy="768.1" rx="517.3" ry="73.3"/>
			<path fill="#FFD045" d="M225.2,768.1c0,8.2,9.4,16,26.8,23.3c94.8,18.8,240,30.8,402.8,30.8c285.7,0,517.3-37,517.3-82.6
				c0-4.7-2.5-9.3-7.2-13.8c-93.7-18.7-248-31-422.5-31C456.8,694.8,225.2,727.6,225.2,768.1z"/>
			<g>
				<g>
					<g>
						<path fill="#D8B12F" d="M979.9,813.9c0,0,0-30-21.2-52.1c0,0,20.3,11.5,29.1,41.5c0,0,4.4-38.8-14.6-60.9
							c0,0,21.6,13.2,22.5,45c0,0,7.1-12.4,13.2-19.4c0,0-10.6,19.4-10.6,45.9H979.9z"/>
					</g>
					<g>
						<path fill="#FFD045" d="M1124.8,742.1c0,0,0-19.6-13.8-34c0,0,13.2,7.5,19,27.1c0,0,2.9-25.3-9.5-39.7c0,0,14.1,8.6,14.7,29.4
							c0,0,4.6-8.1,8.6-12.7c0,0-6.9,12.7-6.9,29.9H1124.8z"/>
					</g>
					<g>
						<path fill="#FFD045" d="M515.8,718.2c0,0,0-19.6-13.8-34c0,0,13.2,7.5,19,27.1c0,0,2.9-25.3-9.5-39.7c0,0,14.1,8.6,14.7,29.4
							c0,0,4.6-8.1,8.6-12.7c0,0-6.9,12.7-6.9,29.9H515.8z"/>
					</g>
					<g>
						<path fill="#FFD045" d="M360.3,723.5c0,0,0-13.3,9.4-23.1c0,0-9,5.1-12.9,18.4c0,0-2-17.2,6.5-27c0,0-9.6,5.9-10,20
							c0,0-3.1-5.5-5.9-8.6c0,0,4.7,8.6,4.7,20.4H360.3z"/>
					</g>
					<g>
						<path fill="#FFD045" d="M1007.1,710.7c0,0,0-13.3,9.4-23.1c0,0-9,5.1-12.9,18.4c0,0-2-17.2,6.5-27c0,0-9.6,5.9-10,20
							c0,0-3.1-5.5-5.9-8.6c0,0,4.7,8.6,4.7,20.4H1007.1z"/>
					</g>
					<g>
						<path fill="#FFD045" d="M676.4,718.9c0,0,0-14.8,10.4-25.6c0,0-10,5.6-14.3,20.4c0,0-2.2-19.1,7.2-30c0,0-10.6,6.5-11.1,22.1
							c0,0-3.5-6.1-6.5-9.6c0,0,5.2,9.6,5.2,22.6H676.4z"/>
					</g>
					<g>
						<path fill="#D8B12F" d="M683.4,829.7c0,0,0-19,13.4-33c0,0-12.9,7.3-18.5,26.3c0,0-2.8-24.6,9.2-38.6c0,0-13.7,8.4-14.3,28.5
							c0,0-4.5-7.8-8.4-12.3c0,0,6.7,12.3,6.7,29.1H683.4z"/>
					</g>
				</g>
			</g>
			<g>
				<g>
					<g>
						<ellipse fill="#D8B12F" cx="612.3" cy="774.3" rx="11.8" ry="5.1"/>
					</g>
					<g>
						<ellipse fill="#D8B12F" cx="585.8" cy="754.7" rx="7.6" ry="2.8"/>
					</g>
				</g>
			</g>
			<g>
				<g>
					<g>
						
							<ellipse transform="matrix(-0.9913 0.1314 -0.1314 -0.9913 2169.3799 1345.0187)" fill="#D8B12F" cx="1040.3" cy="744.1" rx="6.8" ry="3"/>
					</g>
					<g>
						
							<ellipse transform="matrix(-0.9913 0.1314 -0.1314 -0.9913 2204.0305 1361.2921)" fill="#D8B12F" cx="1057.1" cy="753.3" rx="4.4" ry="1.6"/>
					</g>
				</g>
			</g>
		</g>
		<circle fill="#943D28" cx="390.5" cy="659.9" r="4.4"/>
		<circle fill="#943D28" cx="991.2" cy="603.4" r="4.4"/>
		<circle fill="#943D28" cx="916.1" cy="659.9" r="4.4"/>
		<circle fill="#943D28" cx="991.2" cy="659.9" r="4.4"/>
		<path fill="#D3B22C" d="M522.2,735.8c-1.1,0-2.2,0.1-3.2,0.3c0-0.6,0.1-1.3,0.1-2c0-14.1-11.4-25.5-25.5-25.5c-0.1,0-0.3,0-0.4,0
			c0.2-1.4,0.3-2.9,0.3-4.4c0-17.4-14.1-31.5-31.5-31.5c-7.6,0-14.6,2.7-20.1,7.2c-4.8-7-12.9-11.6-22.1-11.6
			c-14.8,0-26.8,12-26.8,26.8c0,0,0,0,0,0c-0.1,0-0.2,0-0.3,0c-5.7,0-10.5,3.5-12.5,8.5c-2.5-1.1-5.2-1.6-8.1-1.6
			c-11.5,0-20.9,9.4-20.9,20.9c0,2,0.3,4,0.8,5.9c-7.1,4.7-11.8,12.7-11.8,21.9c0,14.5,11.7,26.2,26.2,26.2c6.9,0,13.2-2.7,17.8-7
			c6.7,5.2,15.1,8.3,24.2,8.3c8.1,0,15.7-2.5,21.9-6.7c6.6,4,15.4,6.4,25.1,6.4c9.2,0,17.6-2.2,24-5.8c3.9,2.9,8.7,4.7,13.9,4.7
			c7.2,0,13.6-3.3,17.8-8.5c3,2.3,6.8,3.6,10.9,3.6c10,0,18.1-8.1,18.1-18.1S532.2,735.8,522.2,735.8z"/>
		<g>
			
				<ellipse transform="matrix(0.9854 0.1704 -0.1704 0.9854 141.8522 -121.3028)" fill="#D8B12F" cx="777.5" cy="765.7" rx="91.6" ry="19.2"/>
			<g>
				<path fill="#F7EDEC" d="M900.6,580c0,0,2.3,48.1-3.9,76.2c-6.2,28.1-9.2,32.7-9.6,34.3c-0.4,1.5-7.7,30.4-20,47.7
					c-12.3,17.3-23.9,30.4-35,30c-11.2-0.4,22.7-59.7,23.5-62.7c0.8-3.1-22.7,10.8-33.5,10.8c-10.8,0-24.3-15.8-24.3-15.8
					s10.8,20.4,10.8,29.6c0,9.2-14.2,39.6-27.7,46.6c-13.5,6.9,3.5-27.3,4.2-34.3c0.8-6.9-41.6-41.2-48.5-50.4
					c-6.9-9.2-7.7-11.2-7.7-11.2s4.6,27.7-7.7,47.3c-12.3,19.6-22.7,5-22.7,5s3.9,15.4-0.8,21.2c-4.6,5.8-19.2-60.8-18.1-80.8
					c1.2-20,5.8-22.3,5.8-22.3s-7.3-75.4,37.3-93.5c44.7-18.1,50.8-28.1,52.3-29.3C776.6,527.3,900.6,580,900.6,580z"/>
				<path fill="#753217" d="M896.7,656.2c0.8-3.8,1.5-8,2.1-12.3c-2.1,1.9-5.2,4.3-9.8,6.9c-11.9,6.9-16.2,8.1-16.2,8.1l1.9,9.2
					l-5-8.1v9.6c0,0-4.2-6.5-4.6-10.4c-0.4-3.9,1.5-9.2,1.5-9.2s-6.9,5.4-11.9,11.2c-5,5.8-7.3,11.2-7.3,11.2l8.1-3.9
					c0,0-3.1,4.2-5.4,8.8c-2.3,4.6-1.5,7.3-1.5,7.3l6.2-7.3c0,0-2.3,8.9-1.2,8.9c1.2,0,6.9-8.5,6.9-8.5s5.4,8.1,11.9,16.6
					c4.2,5.4,6.1,14,7,19.6c4.7-12,7.4-22.5,7.6-23.4C887.5,688.9,890.5,684.3,896.7,656.2z"/>
				<path fill="#753217" d="M731.6,571.1c0,0-11.2-22.7-9.6-32.3c1.5-9.6,4.6-11.5,4.6-11.5l0.8,9.2l2.7-9.2l0.4,9.2
					c0,0,7.7-6.5,11.2-16.2c3.5-9.6-9.2-29.6-37-26.6C676.9,496.9,663,540,663,540l7.7-12.7c0,0-5.4,15.8-4.6,32.7
					c0.8,16.9,7.3,28.1,7.3,28.1l-0.4-13.5c0,0,6.9,17.3,9.6,26.9c2.7,9.6,4.6,12.7,4.6,12.7l3.5-9.6L731.6,571.1z"/>
				<path fill="#F7EDEC" d="M731,570c-2.2-4.7-10.4-22.8-9.1-31.2c0.9-5.8,2.4-8.8,3.4-10.2c1.2-8.1,4.3-10.1,4.3-10.1
					s-16.6-1.5-24.6,13.5c-8.1,15-8.1,17.3-8.1,17.3s-0.4-10,4.6-20.4s6.9-12.7,6.9-12.7s-13.1,7.3-16.6,28.9
					c-3.5,21.6-1.9,33.5-1.9,33.5l-2.3-6.9l0.4,10.4l-3.5-5c0,0-3.1,15.8,2.3,28.1c0.8,1.8,1.4,3.3,2,4.7l1.8-5.1l37.7-30.9
					C729.4,572.4,730.2,571.1,731,570z"/>
				<path fill="#753217" d="M900.6,580c0,0-48.2-20.5-84.8-35.6c-22.8-4.7-42.6-8.5-48.1-9.5c-6.7,4.9-19.7,12.6-45,22.8
					c-44.7,18.1-37.3,93.5-37.3,93.5s-2.9,1.5-4.7,12.2c0.9,4,2,8.5,3.5,13.6c6.5,22.3,20,43.1,20,43.1l2.7-23.5l3.9,21.6l2.3-19.2
					c0,0,1.9,4.6,1.9,23.9c0,5.7-0.5,10.1-1.3,13.6c2.3-1.6,4.8-4.1,7.4-8.2c12.3-19.6,7.7-47.3,7.7-47.3s0.8,1.9,7.7,11.2
					c5,6.7,28.6,26.5,40.9,39.5c1.1-1.9,2.2-4.4,2.2-7.2c0-5.8,6.9-8.9,6.9-8.9s0,7.7,1.2,7.3c1.2-0.4,2.7-9.2,2.7-9.2
					s0.4,9.2,2.3,5.8c1.9-3.5,10-9.2,7.3-13.9c-2.7-4.6-11.9-23.9-11.9-23.9l-14.2,8.5l3.5-14.2l-17.3,9.6c0,0,0,0,5.8-7.7
					c5.8-7.7,18.9-41.2,18.9-41.2l-36.6,9.6l13.1-11.9l-17.7,7.7l17.7-13.1l-17.7,5.4c0,0,20-16.2,36.2-26.9
					c16.2-10.8,18.1-32.3,18.1-32.3l20.4,4.2l31.6,47l15.8-11.5l-9.2,18.5l14.6-10.4l-9.2,14.2c0,0,8.1-5.4,16.9-12.3
					c4.8-3.8,14.4-13.9,22.4-23.2C901,589,900.6,580,900.6,580z"/>
				<path fill="#E7F3EE" d="M777.5,731.5c0.7-1.1,1.3-2.5,1.7-4.1c-8.1-7.9-50.3-68.2-50.3-68.2l-1.5,11.5l-4.6-13.1l0.8,15.4
					l-5.4-9.6c0,0,3.1,10.4,6.2,26.2c1.8,9.2,1.2,22.2,0.5,31.5c7.8-18.6,4.2-40.4,4.2-40.4s0.8,1.9,7.7,11.2
					C741.6,698.7,765.1,718.5,777.5,731.5z"/>
				<g>
					<path fill="#C93635" d="M853.4,579.2c0,0,35.2,26.6,82.6,17c47.3-9.5,28.6-47.1,6.4-59.8c-22.2-12.7-28.9-21.6-64.7-21.9
						c-29.4-2-73.3,13-73.3,13s4.3,19.9,5.5,22.2C811,552.1,825.1,578.6,853.4,579.2z"/>
					<path fill="#D83E3D" d="M822.8,535.1c0,0,16.5,30.6,62.4,47.1c45.9,16.5,67.6,0.3,67.6,0.3s-11.3,13-54.3,6.6
						c-43-6.4-68.4-34.6-80.3-54.6C806.3,514.6,822.8,535.1,822.8,535.1z"/>
					<path fill="#B32C2D" d="M851.1,532.2c0,0,9.2-8.1,43.9-3.2c34.6,4.9,68.7,33.8,58,50.5c0,0,11-8.1,2.6-25.7
						c-8.4-17.6-60.9-41.6-82.3-35.2C852,524.9,851.1,532.2,851.1,532.2z"/>
					<path fill="#D83E3D" d="M862.1,527.8c0,0,23.1-3.2,47.1,4c24,7.2,41.6,24.8,43.6,31.8c0,0-15.3-22.5-51.4-28.9
						c-36.1-6.4-46.5-0.6-46.5-0.6L862.1,527.8z"/>
					<path fill="#B32C2D" d="M965.1,566.6c-1,4.2-3,8.9-6.3,14.4c-11.5,19.1-82.3,15.9-116.3-13c-34.1-28.9-23.7-34.9-23.7-34.9
						s-2.7-4.1-5.7-8.2c-5.4,1.6-8.8,2.7-8.8,2.7s4.3,19.9,5.5,22.2c1.2,2.3,15.3,28.9,43.6,29.4c0,0,35.2,26.6,82.6,17
						C960.3,591.4,967.1,579.1,965.1,566.6z"/>
				</g>
				<path fill="#FFFFFF" d="M815.6,531.9c0,0,3.8,5.5,9.5,6.1c5.8,0.6,9.2-2.6,9.2-2.6s6.4,6.1,13.6,5.5
					c7.2-0.6,30.9-26.3,30.9-26.3s17,1.2,23.1,2c6.1,0.9,14.1,4.6,14.1,4.6l-5.2-6.6l8.7,4c0,0-0.3-8.9-7.5-21.1
					c-7.2-12.1-14.4-20.5-14.4-20.5s13.6,1.4,18.2,4c4.6,2.6,15.9,5.2,15.9,5.2s-11.5-26.3-32.3-35.8c-20.8-9.5-39.6-7.5-46.8-4.6
					c-7.2,2.9-7.2,1.4-7.2,1.4l4.3-2.9c0,0-3.5,0.9-8.4,1.7c-4.9,0.9-5.5-1.7-5.5-1.7l0.6,2.6c0,0-0.3-0.6-4.9-2.3
					c-4.6-1.7-6.1-1.7-6.1-1.7l2.9,2.6l-6.1-1.4l2,2.3c0,0-21.7-3.5-39.8,1.7c-18.2,5.2-24,6.9-27.4,18.2
					c-3.5,11.3-7.2,19.9-11,21.4c-3.8,1.4,1.4,6.1,8.7,1.4c7.2-4.6,20.8-18.5,20.8-18.5s-13.3,16.7-16.5,22.8
					c-3.2,6.1-3.2,6.1-3.2,6.1l3.2-2.9c0,0,2.9,5.5-1.2,8.1c-4,2.6-5.2,3.5-5.2,3.5l4,0.9l-4.6,2.6c0,0,6.4,2.3,9.2,2.9
					c2.9,0.6-6.6,7.2-10.7,13c-4,5.8-4.3,10.1-4.3,10.1l4.6-4c0,0-1.4,6.6-0.9,13.6c0.6,6.9,14.4,25.7,14.4,25.7l0.9-5.8
					c0,0,2,7.8,17.3,15.3c15.3,7.5,28.9,18.2,28.9,18.2l5.8-5.8c0,0,4.3,30.9,3.2,46.5c-1.2,15.6-8.7,43.6-8.7,43.6l4.3-5.5
					l-1.4,20.8c0,0,31.2-39.8,36.7-75.3c5.5-35.5,3.5-45,3.5-45s-28.6-15.3-37.8-31.5C807.8,532.2,815.6,531.9,815.6,531.9z"/>
				<path fill="#F7EDEC" d="M797.4,529.6c0-0.9,0-1.4,0-1.4S797.3,528.6,797.4,529.6z M817,548.3c-7.6-13.3-3.7-15.9-2-16.3l-1.1-3
					c0,0-4.6,8.9-2.3,19.9c2.3,11,11.3,18.5,11.3,18.5s-14.1-5.8-20.2-19.6c-4.4-10-5.1-15.7-5.2-18.2c0,3.1,0.4,11,3.8,19.1
					c4.3,10.4,10.7,17,10.7,17s-6.9-3.8-13-11c-6.1-7.2-8.1-12.1-8.1-12.1s3.8,15.6,15.9,25.4c12.1,9.8,21.7,12.7,21.7,12.7l-11,0.6
					c0,0,8.4,3.2,10.1,2.9c1.7-0.3,2.9,12.4,0.3,24s-2.6,11.5-2.6,11.5s4.6-6.6,5.8-13.9c1.2-7.2,1.4-10.7,1.4-10.7
					s5.2,8.7,0.6,40.4c-4.6,31.8-9.2,37.2-9.2,37.2s6.6-5.2,11.5-26.8c4.9-21.7,6.6-30.3,6.6-30.3s0.9,16.7-2.9,33.8
					c0,0,8.9-13,11.8-42.4c1.4-13.8,2.2-22.5,2.7-27.9C847.8,575.8,825.1,562.4,817,548.3z"/>
				<path fill="#E7F3EE" d="M909,517.8c-6.2-3.8-28.7-7.9-28.7-7.9l-1.3,2.7l-1.3-2.7l-1,2.7l-1.5-6.2c0,0,1,3.9-0.6,8.5
					c-1.5,4.6-10.6,13.5-19.2,20.4c-8.7,6.9-15.6,2.9-17.5,0.4c-1.9-2.5-1-4.8-1-4.8s6.2-1.2,8.3-3.5c2.1-2.3,1.2-5.2,1.2-5.2
					s-1.9-0.2-2.3,0.4c-0.4,0.6-13.9,1.2-13.9,1.2s-0.4,1,0.6,2.9c1,1.9,3.8,2.7,3.8,2.7s-0.8,7.3-10.4,6.5
					c-9.6-0.8-11.1-11.1-11.1-11.1c-0.6,3.1-0.3,5.9,0.2,8.4c0.9-1.3,2.3-1.3,2.3-1.3s3.8,5.5,9.5,6.1c5.8,0.6,9.2-2.6,9.2-2.6
					s6.4,6.1,13.6,5.5c7.2-0.6,30.9-26.3,30.9-26.3s17,1.2,23.1,2c2.8,0.4,6,1.4,8.7,2.4C910.2,518.6,909.7,518.2,909,517.8z"/>
				<path fill="#753217" d="M931.6,486.3c0,0-11.5-26.3-32.3-35.8c-10.1-4.6-19.7-6.5-27.7-6.9c-0.2,2.2-0.8,4.9-2.6,5.8
					c-3.1,1.5-6,2.7-6,2.7s7.1,2.7,10.2,6.3c3.1,3.7,1.3,6.3-2.1,10.8c-3.5,4.4,1.3,6.2,1.3,6.2s-16.4,2.7-18.7,12.7
					c-2.3,10,13.3,13.7,13.3,13.7l-1.3-2.1c0,0,0.2,0.2,9.6,0.6c9.4,0.4,16.7,7.7,16.7,7.7l-2.1-4c0,0,10.6,10.4,23.3,10.2
					c2.1,0,3.9-0.3,5.4-0.6c-0.9-3.8-2.7-9.3-6.6-15.9c-7.2-12.1-14.4-20.5-14.4-20.5s13.6,1.4,18.2,4
					C920.4,483.7,931.6,486.3,931.6,486.3z"/>
				<path fill="#753217" d="M803,505.5c13.7-0.8,20-3.1,28.1-8.9c8.1-5.8,1.2-12.1,1.2-12.1l2.3,1c0,0-0.4-6.2-9.4-14.1
					c-9-7.9-19.1-7.5-19.4-11.4c-0.4-3.8,5-6.5,5-6.5s-8.1,2.3-4.6-1.5c2-2.2,4.5-4.8,6.3-6.6c-7.8-0.3-18.3,0-27.9,2.8
					c-18.2,5.2-24,6.9-27.4,18.2c-3.5,11.3-7.2,19.9-11,21.4c-3.8,1.4,1.4,6.1,8.7,1.4c7.2-4.6,20.8-18.5,20.8-18.5
					s-13.3,16.7-16.5,22.8c-3.2,6.1-3.2,6.1-3.2,6.1l3.2-2.9c0,0,2.9,5.5-1.2,8.1c-4,2.6-5.2,3.5-5.2,3.5l4,0.9l-4.6,2.6
					c0,0,6.4,2.3,9.2,2.9c2.9,0.6-6.6,7.2-10.7,13c-4,5.8-4.3,10.1-4.3,10.1l4.6-4c0,0-1.4,6.6-0.9,13.6c0.1,1.8,1.2,4.4,2.6,7.2
					c3.6-6.4,9.7-15.6,18.3-23.5c15-13.7,16.7-17.3,16.7-17.3l-4.4,1.3C783.3,514.9,789.3,506.3,803,505.5z"/>
				<path fill="#381C08" d="M828.4,521.3c0,0,2.7,6.5,6.9,6.9c4.2,0.4,10.2-1.7,10.2-5.6C845.5,518.8,828.4,516.9,828.4,521.3z"/>
				<path fill="#381C08" d="M807,489.2c0,0,0.8,3.9,2.9,3.5c2.1-0.4,3.7-2.7,6.7-2.7c3.1,0,5.6,3.1,6.7,3.1c1.2,0,0.2-6.9-4.6-8.1
					C813.9,483.8,807,489.2,807,489.2z"/>
				<path fill="#381C08" d="M876.2,489.2c0,0-0.8,3.9-2.9,3.5c-2.1-0.4-3.7-2.7-6.7-2.7c-3.1,0-5.6,3.1-6.7,3.1
					c-1.2,0-0.2-6.9,4.6-8.1C869.2,483.8,876.2,489.2,876.2,489.2z"/>
			</g>
		</g>
	</g>
</g>
</svg>
